<?xml version="1.0" standalone="no"?>
<!DOCTYPE svg PUBLIC "-//W3C//DTD SVG 20010904//EN"
 "http://www.w3.org/TR/2001/REC-SVG-20010904/DTD/svg10.dtd">
<svg version="1.0" xmlns="http://www.w3.org/2000/svg"
 width="726.000000pt" height="726.000000pt" viewBox="0 0 726.000000 726.000000"
 preserveAspectRatio="xMidYMid meet">
<metadata>
Created by potrace 1.14, written by Peter Selinger 2001-2017
</metadata>
<g transform="translate(0.000000,726.000000) scale(0.100000,-0.100000)"
fill="#000000" stroke="none">
<path d="M3601 6711 c-102 -155 -212 -388 -284 -601 -47 -138 -128 -444 -142
-540 -3 -19 -8 -42 -10 -50 -2 -8 -7 -31 -10 -50 -3 -19 -7 -46 -10 -60 -2
-14 -7 -45 -10 -70 -3 -25 -7 -54 -9 -65 -2 -11 -7 -50 -11 -87 -7 -62 -6 -68
11 -69 11 0 26 -2 34 -3 8 -2 41 -6 72 -9 215 -24 500 -131 705 -266 210 -138
364 -291 508 -506 81 -120 193 -331 210 -395 1 -3 7 -17 13 -31 25 -62 67
-192 98 -304 18 -66 33 -113 34 -105 1 8 3 24 5 35 2 11 7 49 11 85 3 36 8 73
10 82 21 116 21 679 -1 809 -2 13 -6 51 -10 84 -3 33 -10 85 -15 115 -5 30
-12 75 -15 100 -9 62 -30 162 -61 283 -125 499 -351 952 -663 1328 -71 86
-370 379 -387 379 -8 0 -41 -40 -73 -89z"/>
<path d="M1975 5002 c-3 -3 -102 -10 -222 -16 -18 0 -33 -3 -33 -6 0 -4 -10
-6 -22 -7 -38 -1 -119 -12 -138 -18 -10 -3 -31 -8 -46 -10 -26 -4 -52 -9 -104
-20 -8 -2 -16 -4 -17 -5 -3 -3 -3 -3 -58 -15 -22 -4 -46 -10 -52 -12 -7 -1
-19 -4 -25 -6 -17 -4 -119 -37 -138 -44 -8 -4 -18 -7 -22 -8 -5 -2 -9 -3 -10
-4 -2 -2 -12 -4 -23 -6 -12 -2 -47 -16 -78 -30 -32 -14 -64 -25 -72 -25 -8 0
-15 -5 -15 -11 0 -5 -4 -7 -10 -4 -5 3 -10 2 -10 -3 0 -5 -6 -9 -13 -9 -15 0
-309 -143 -317 -154 -3 -4 -27 -19 -55 -34 -75 -42 -79 -48 -50 -79 13 -14 26
-35 30 -46 3 -11 14 -20 22 -20 9 0 14 -3 10 -6 -3 -3 10 -22 29 -42 19 -19
34 -39 34 -44 0 -5 5 -6 10 -3 6 3 10 1 10 -5 0 -15 164 -172 240 -230 18 -14
40 -32 50 -40 10 -8 32 -26 50 -40 18 -14 39 -31 47 -38 7 -7 13 -11 13 -7 0
3 20 -10 44 -29 23 -20 48 -36 54 -36 6 0 12 -3 14 -7 4 -9 65 -53 73 -53 3 0
11 -5 18 -10 23 -19 90 -61 138 -86 26 -14 50 -31 53 -37 3 -8 5 -7 5 2 1 12
3 12 14 -1 14 -19 167 -101 167 -90 0 4 4 2 8 -4 4 -6 39 -26 77 -45 39 -18
72 -35 75 -38 3 -3 11 -7 19 -9 8 -2 32 -12 54 -23 52 -25 64 -24 72 4 13 43
107 227 116 227 5 0 8 3 7 8 -4 10 63 112 74 112 4 0 7 4 5 8 -3 10 95 132
106 132 4 0 7 7 7 15 0 8 7 15 15 15 8 0 15 4 15 9 0 5 23 31 51 58 28 26 62
58 75 71 12 12 28 22 34 22 5 0 10 4 10 9 0 4 19 21 43 37 23 16 44 32 45 37
2 4 10 7 18 7 8 0 14 5 14 10 0 6 7 10 15 10 8 0 15 4 15 8 0 5 19 18 43 31
23 12 65 35 92 51 28 16 58 29 68 29 9 1 17 6 17 11 0 6 9 10 19 10 11 0 23 4
26 10 6 10 84 35 98 32 4 -1 7 3 7 8 0 5 3 9 8 8 4 0 14 2 22 5 38 16 195 55
202 51 4 -3 8 0 8 6 0 6 4 9 8 6 4 -3 26 0 48 5 50 12 119 21 166 23 21 0 38
3 38 6 0 3 17 5 37 4 21 0 50 3 66 7 16 5 27 4 27 -2 0 -6 6 -7 12 -3 18 11
300 6 331 -5 15 -6 29 -6 32 -1 6 10 -90 61 -99 53 -3 -4 -6 -1 -6 5 0 7 -5
12 -10 12 -6 0 -30 9 -52 20 -23 11 -46 20 -50 20 -5 0 -28 9 -50 20 -23 11
-50 20 -60 20 -10 0 -18 4 -18 10 0 5 -3 9 -7 8 -8 -2 -72 17 -108 32 -33 14
-110 42 -112 41 -2 0 -8 1 -15 3 -15 5 -66 16 -73 17 -3 0 -24 7 -47 15 -24 9
-52 17 -63 20 -11 2 -30 6 -42 9 -13 3 -32 7 -44 10 -11 2 -30 7 -42 11 -12 4
-32 8 -44 10 -12 1 -34 5 -50 8 -61 13 -79 17 -103 22 -62 11 -98 16 -130 20
-19 2 -51 7 -70 10 -43 7 -68 9 -195 19 -103 8 -444 13 -450 7z"/>
<path d="M5847 4604 c-1 -1 -56 -5 -122 -8 -66 -4 -133 -9 -150 -11 -16 -2
-55 -6 -85 -9 -30 -3 -71 -8 -90 -11 -68 -10 -116 -16 -155 -20 -22 -2 -47 -6
-55 -9 -8 -3 -31 -8 -50 -10 -60 -8 -81 -17 -76 -35 5 -20 18 -89 22 -116 1
-11 6 -47 10 -80 10 -76 10 -291 0 -370 -34 -278 -130 -542 -278 -767 -67
-102 -57 -89 -140 -188 -60 -71 -145 -159 -219 -225 -102 -92 -325 -255 -349
-255 -5 0 -10 -3 -10 -7 0 -5 -18 -17 -40 -27 -22 -11 -46 -26 -53 -35 -6 -8
-7 -12 -1 -8 6 3 35 9 64 12 30 4 57 8 61 11 4 2 24 6 45 10 33 5 84 15 144
29 47 11 173 45 225 61 33 10 65 19 70 20 6 0 17 4 25 7 19 8 212 77 225 81 6
2 23 8 38 14 16 7 30 12 33 12 2 0 38 16 80 35 41 19 78 35 80 35 8 0 255 125
304 154 25 14 57 32 73 38 15 7 27 16 27 20 0 4 4 8 9 8 13 0 225 140 229 151
2 5 8 9 13 9 12 0 179 131 274 215 121 108 296 290 359 374 12 15 27 34 34 42
7 8 26 32 42 54 16 22 33 45 37 50 16 21 136 205 154 237 58 101 188 373 182
379 -10 9 -137 49 -177 56 -16 2 -40 9 -54 14 -14 5 -27 7 -29 5 -3 -3 -15 -1
-27 4 -13 4 -47 11 -77 15 -30 4 -65 9 -79 11 -91 14 -258 25 -418 27 -68 1
-124 1 -125 1z"/>
<path d="M2638 4065 c-32 -33 -74 -78 -94 -100 -20 -22 -54 -59 -75 -82 -22
-22 -39 -46 -39 -52 0 -5 -6 -14 -13 -18 -7 -4 -30 -30 -52 -58 -21 -27 -44
-55 -49 -60 -6 -6 -15 -18 -21 -27 -8 -12 -107 -151 -152 -214 -17 -22 -34
-50 -50 -81 -9 -18 -20 -33 -25 -33 -4 0 -8 -4 -8 -9 0 -9 -58 -109 -70 -121
-3 -3 -6 -12 -8 -20 -2 -8 -8 -16 -13 -18 -5 -2 -9 -12 -9 -23 0 -10 -4 -19
-9 -19 -5 0 -15 -16 -22 -35 -7 -19 -17 -35 -21 -35 -4 0 -8 -6 -8 -13 0 -7
-16 -43 -36 -80 -19 -37 -32 -67 -27 -67 4 0 3 -4 -3 -8 -5 -4 -30 -54 -53
-112 -24 -58 -47 -114 -51 -125 -13 -30 -52 -139 -54 -150 -1 -5 -11 -37 -21
-70 -10 -33 -19 -64 -21 -70 -1 -5 -10 -39 -19 -75 -10 -36 -19 -72 -20 -80
-2 -8 -4 -15 -5 -15 -1 0 -3 -13 -5 -30 -2 -16 -7 -41 -11 -55 -10 -35 -12
-49 -18 -100 -3 -25 -8 -56 -11 -70 -8 -37 -16 -117 -18 -182 -1 -32 -4 -58
-7 -58 -3 0 -5 -89 -4 -197 1 -109 2 -198 3 -198 3 0 12 -116 14 -180 1 -27 5
-52 9 -55 4 -4 8 -27 9 -53 1 -26 5 -47 9 -47 4 0 6 -10 6 -23 -1 -12 1 -31 5
-43 4 -11 10 -36 12 -54 7 -43 20 -55 45 -41 10 6 22 7 26 4 3 -3 6 -1 6 5 0
6 9 9 20 7 11 -2 20 0 20 6 0 5 6 9 14 9 7 0 31 8 52 17 22 9 41 17 44 18 50
15 323 157 348 182 7 7 18 13 24 13 6 0 26 11 44 25 19 14 36 25 40 24 4 0 10
3 13 8 3 5 38 31 76 58 109 76 198 144 238 180 13 11 52 45 87 75 84 70 127
111 267 248 l115 114 -78 78 c-77 76 -145 153 -153 173 -2 5 -11 18 -20 28
-31 34 -41 48 -41 58 0 5 -3 11 -7 13 -11 4 -63 92 -103 173 -19 39 -38 72
-42 73 -5 2 -8 15 -8 28 0 13 -4 24 -9 24 -5 0 -13 15 -16 33 -4 17 -12 38
-17 45 -6 6 -7 12 -3 12 4 0 3 6 -3 13 -5 6 -13 28 -18 47 -11 50 -11 50 -14
53 -1 1 -3 10 -6 20 -2 9 -6 25 -8 35 -3 9 -5 17 -6 17 -1 0 -3 11 -5 25 -1
14 -6 36 -9 50 -6 23 -10 54 -22 155 -7 65 -7 296 1 355 4 30 9 69 10 85 6 58
16 111 43 220 14 61 26 112 27 115 2 12 17 57 25 75 4 11 18 49 30 85 13 36
27 76 33 90 6 14 11 27 12 30 0 3 11 27 23 54 12 27 21 52 20 55 -2 3 -29 -21
-60 -54z"/>
<path d="M2755 2771 c-3 -6 -1 -11 4 -11 6 0 10 -3 9 -7 -2 -5 21 -48 50 -98
69 -117 69 -116 127 -203 28 -41 58 -86 67 -101 9 -14 21 -30 25 -36 5 -5 19
-26 33 -45 13 -19 27 -37 30 -40 3 -3 24 -30 47 -60 23 -30 54 -68 68 -85 14
-16 40 -47 58 -69 99 -119 311 -330 443 -441 26 -22 56 -48 66 -57 10 -10 18
-16 18 -13 0 3 10 -4 23 -15 12 -12 48 -40 80 -62 31 -23 57 -45 57 -49 0 -5
5 -9 10 -9 12 0 213 -132 218 -142 2 -5 12 -8 23 -8 10 0 19 -4 19 -8 0 -4 15
-15 33 -24 17 -8 84 -42 147 -74 63 -32 118 -60 123 -61 4 -1 28 -11 53 -23
71 -31 254 -98 304 -110 25 -7 51 -17 58 -22 6 -6 12 -8 12 -5 0 3 15 1 33 -4
17 -6 43 -12 57 -15 14 -3 33 -7 42 -10 10 -3 28 -7 40 -10 41 -7 73 -14 101
-20 16 -3 38 -7 50 -9 156 -23 155 -23 167 -30 5 -3 10 -1 10 5 0 6 5 8 11 4
7 -4 37 -9 68 -11 31 -2 63 -5 73 -7 14 -3 16 8 15 95 -1 55 -4 99 -7 99 -3 0
-6 21 -7 48 -3 48 -10 107 -13 107 -1 0 -3 9 -5 20 -15 96 -23 138 -33 167 -5
13 -8 32 -8 43 1 11 -2 22 -6 25 -4 3 -10 19 -13 35 -7 34 -10 44 -18 65 -3 8
-15 44 -26 80 -36 117 -66 195 -76 202 -5 4 -7 8 -3 8 4 0 -1 19 -12 42 -10
23 -16 46 -14 50 3 4 0 8 -5 8 -6 0 -11 5 -11 10 0 10 -19 53 -64 150 -11 25
-21 47 -21 50 -1 3 -9 21 -20 40 -11 19 -20 37 -20 40 -4 18 -50 100 -57 100
-4 0 -8 8 -8 18 0 10 -4 22 -9 27 -5 6 -23 37 -41 70 -56 102 -50 98 -101 65
-24 -17 -50 -30 -57 -30 -7 0 -10 -5 -6 -11 4 -7 1 -10 -7 -7 -8 3 -22 -2 -32
-10 -10 -9 -23 -17 -30 -18 -7 -2 -50 -19 -97 -39 -47 -20 -92 -38 -100 -40
-8 -2 -42 -11 -75 -20 -112 -31 -178 -45 -183 -40 -3 3 -11 0 -19 -6 -7 -6
-13 -9 -13 -6 0 3 -13 2 -30 -3 -20 -6 -30 -5 -30 2 0 6 -6 5 -15 -2 -12 -10
-60 -13 -183 -11 -204 2 -242 4 -242 11 0 3 -12 6 -27 5 -16 0 -59 7 -97 17
-38 9 -72 16 -75 16 -3 -1 -13 1 -21 5 -31 12 -165 52 -175 52 -5 0 -16 6 -23
13 -8 7 -18 10 -23 7 -5 -4 -9 -1 -9 4 0 6 -7 11 -15 11 -21 0 -198 85 -263
126 -29 19 -54 34 -56 34 -9 0 -131 84 -134 92 -2 4 -10 8 -18 8 -8 0 -14 5
-14 10 0 6 -6 10 -14 10 -8 0 -16 3 -18 8 -1 4 -23 23 -48 42 -71 55 -81 64
-100 83 -12 12 -20 15 -25 8z"/>
</g>
</svg>
